<svg width="12" height="25" viewBox="0 0 12 25" fill="none" xmlns="http://www.w3.org/2000/svg">
<path d="M4.344 12.596C4.312 12.236 4.292 11.876 4.284 11.516C4.284 11.148 4.28 10.78 4.272 10.412H4.104C3.856 10.412 3.58 10.452 3.276 10.532C2.98 10.604 2.696 10.716 2.424 10.868C2.152 11.02 1.928 11.212 1.752 11.444C1.584 11.668 1.5 11.928 1.5 12.224C1.5 12.608 1.608 12.9 1.824 13.1C2.04 13.292 2.332 13.388 2.7 13.388C2.876 13.388 3.068 13.348 3.276 13.268C3.484 13.18 3.684 13.076 3.876 12.956C4.068 12.836 4.224 12.716 4.344 12.596ZM6.444 13.364C6.444 13.396 6.44 13.42 6.432 13.436C6.352 13.612 6.216 13.748 6.024 13.844C5.84 13.932 5.656 13.976 5.472 13.976C5.136 13.976 4.892 13.88 4.74 13.688C4.596 13.488 4.48 13.244 4.392 12.956C4.088 13.236 3.752 13.472 3.384 13.664C3.016 13.848 2.62 13.94 2.196 13.94C1.9 13.94 1.62 13.884 1.356 13.772C1.1 13.652 0.892 13.48 0.732 13.256C0.572 13.032 0.492 12.76 0.492 12.44C0.492 12.104 0.576 11.816 0.744 11.576C0.92 11.328 1.14 11.12 1.404 10.952C1.676 10.776 1.964 10.636 2.268 10.532C2.58 10.42 2.872 10.336 3.144 10.28C3.328 10.24 3.516 10.204 3.708 10.172C3.9 10.14 4.088 10.108 4.272 10.076C4.272 9.852 4.26 9.592 4.236 9.296C4.22 9 4.16 8.756 4.056 8.564C3.952 8.38 3.812 8.216 3.636 8.072C3.46 7.928 3.264 7.856 3.048 7.856C2.68 7.856 2.392 7.952 2.184 8.144C1.976 8.336 1.828 8.608 1.74 8.96C1.732 9 1.724 9.044 1.716 9.092C1.716 9.132 1.712 9.172 1.704 9.212C1.696 9.26 1.664 9.304 1.608 9.344C1.56 9.376 1.508 9.392 1.452 9.392C1.3 9.392 1.16 9.356 1.032 9.284C0.912 9.212 0.852 9.092 0.852 8.924C0.852 8.828 0.868 8.744 0.9 8.672C1.004 8.424 1.172 8.22 1.404 8.06C1.636 7.892 1.892 7.764 2.172 7.676C2.46 7.588 2.728 7.544 2.976 7.544C3.408 7.544 3.8 7.624 4.152 7.784C4.504 7.944 4.784 8.18 4.992 8.492C5.208 8.796 5.316 9.18 5.316 9.644C5.316 10.164 5.312 10.688 5.304 11.216C5.304 11.744 5.32 12.272 5.352 12.8C5.36 12.976 5.396 13.132 5.46 13.268C5.524 13.396 5.656 13.46 5.856 13.46C5.96 13.46 6.068 13.436 6.18 13.388C6.3 13.332 6.376 13.304 6.408 13.304C6.432 13.304 6.444 13.324 6.444 13.364Z" fill="black"/>
<path d="M6.67123 11.419C6.70447 11.7789 6.72572 12.1388 6.73496 12.4988C6.73623 12.8668 6.74151 13.2347 6.75078 13.6027L6.91878 13.6021C7.16678 13.6013 7.44264 13.5603 7.74636 13.4793C8.04211 13.4063 8.32572 13.2933 8.59719 13.1403C8.86866 12.9874 9.092 12.7946 9.2672 12.562C9.43442 12.3374 9.51752 12.0771 9.5165 11.7811C9.51517 11.3971 9.40616 11.1055 9.18947 10.9063C8.9728 10.715 8.68047 10.62 8.31248 10.6213C8.13648 10.6219 7.94462 10.6626 7.73689 10.7433C7.5292 10.832 7.32956 10.9367 7.13798 11.0574C6.94639 11.178 6.79081 11.2986 6.67123 11.419ZM4.56858 10.6583C4.56847 10.6263 4.57239 10.6022 4.58033 10.5862C4.65972 10.4099 4.79525 10.2735 4.98692 10.1768C5.17061 10.0882 5.35446 10.0435 5.53846 10.0429C5.87446 10.0417 6.11879 10.1369 6.27145 10.3284C6.41614 10.5279 6.53298 10.7715 6.62198 11.0591C6.92501 10.7781 7.26019 10.5409 7.62753 10.3477C7.99489 10.1624 8.39057 10.069 8.81456 10.0676C9.11056 10.0665 9.39075 10.1216 9.65514 10.2327C9.91155 10.3518 10.1201 10.523 10.2809 10.7465C10.4417 10.9699 10.5226 11.2417 10.5237 11.5617C10.5249 11.8977 10.4419 12.1859 10.2747 12.4265C10.0996 12.6751 9.88031 12.8839 9.6169 13.0528C9.34551 13.2297 9.05799 13.3707 8.75435 13.4758C8.44274 13.5889 8.15104 13.6739 7.87923 13.7308C7.69537 13.7715 7.5075 13.8081 7.31561 13.8408C7.12372 13.8734 6.93583 13.9061 6.75194 13.9387C6.75272 14.1627 6.76562 14.4227 6.79064 14.7186C6.80767 15.0145 6.86851 15.2583 6.97317 15.45C7.07781 15.6336 7.21838 15.7971 7.39487 15.9405C7.57137 16.0839 7.76762 16.1552 7.98362 16.1545C8.35161 16.1532 8.63928 16.0562 8.84661 15.8635C9.05395 15.6708 9.20101 15.3983 9.28779 15.046C9.29565 15.0059 9.3035 14.9619 9.31133 14.9139C9.31119 14.8739 9.31506 14.8339 9.32292 14.7938C9.33075 14.7458 9.3626 14.7017 9.41846 14.6615C9.46635 14.6293 9.51829 14.6132 9.57429 14.613C9.72629 14.6124 9.86642 14.6479 9.99466 14.7195C10.1149 14.7911 10.1753 14.9109 10.1759 15.0789C10.1762 15.1749 10.1605 15.2589 10.1288 15.331C10.0256 15.5794 9.85835 15.784 9.6269 15.9448C9.39548 16.1136 9.13993 16.2425 8.86023 16.3314C8.57254 16.4204 8.30469 16.4654 8.0567 16.4662C7.6247 16.4677 7.23242 16.3891 6.87987 16.2303C6.52732 16.0715 6.24651 15.8365 6.03743 15.5252C5.82038 15.2219 5.71105 14.8383 5.70944 14.3743C5.70764 13.8543 5.70983 13.3303 5.71601 12.8023C5.71418 12.2743 5.69635 11.7464 5.66253 11.2185C5.65392 11.0425 5.61738 10.8866 5.55291 10.7508C5.48846 10.6231 5.35624 10.5595 5.15625 10.5602C5.05225 10.5606 4.94433 10.585 4.8325 10.6333C4.71269 10.6898 4.63679 10.718 4.60479 10.7181C4.58079 10.7182 4.56872 10.6983 4.56858 10.6583Z" fill="black"/>
</svg>
